<?xml version="1.0" encoding="iso-8859-1"?>
<svg xmlns="http://www.w3.org/2000/svg" xmlns:xlink="http://www.w3.org/1999/xlink" version="1.1" viewBox="0 0 511 511" enable-background="new 0 0 511 511" width="512px" height="512px">
  <g>
    <path d="m399.5,192h-32c-5.647,0-11.161,0.742-16.5,2.177v-34.677c0-8.547-6.953-15.5-15.5-15.5h-272c-8.547,0-15.5,6.953-15.5,15.5v280c0,19.43 14.106,35.617 32.613,38.887 3.27,18.506 19.457,32.613 38.887,32.613h160c19.43,0 35.617-14.107 38.887-32.613 18.507-3.27 32.613-19.457 32.613-38.887v-26.678c5.339,1.436 10.854,2.178 16.5,2.178h32c35.014,0 63.5-28.486 63.5-63.5v-96c0-35.014-28.486-63.5-63.5-63.5zm-48.5,63.5c0-9.098 7.402-16.5 16.5-16.5h32c9.098,0 16.5,7.402 16.5,16.5v96c0,9.098-7.402,16.5-16.5,16.5h-32c-9.098,0-16.5-7.402-16.5-16.5v-96zm-71.5,240.5h-160c-10.894,0-20.146-7.149-23.321-17h206.643c-3.176,9.851-12.428,17-23.322,17zm56.5-56.5c0,13.509-10.991,24.5-24.5,24.5h-224c-13.509,0-24.5-10.991-24.5-24.5v-280c0-0.276 0.224-0.5 0.5-0.5h272c0.276,0 0.5,0.224 0.5,0.5v280zm112-88c0,26.743-21.757,48.5-48.5,48.5h-32c-5.707,0-11.235-0.98-16.5-2.89v-18.792c4.802,2.965 10.454,4.681 16.5,4.681h32c17.369,0 31.5-14.131 31.5-31.5v-96c0-17.369-14.131-31.5-31.5-31.5h-32c-6.046,0-11.698,1.716-16.5,4.681v-18.792c5.264-1.91 10.792-2.889 16.5-2.889h32c26.743,0 48.5,21.757 48.5,48.5v96.001z" fill="#333333"/>
    <path d="m184,119.5c0,4.142 3.358,7.5 7.5,7.5s7.5-3.358 7.5-7.5c0-6.554 2.464-9.427 6.193-13.776 4.369-5.095 9.807-11.436 9.807-23.541 0-12.109-5.437-18.454-9.805-23.551-3.73-4.353-6.195-7.229-6.195-13.791s2.464-9.438 6.195-13.791c4.368-5.096 9.805-11.441 9.805-23.55 0-4.142-3.358-7.5-7.5-7.5s-7.5,3.358-7.5,7.5c0,6.562-2.464,9.438-6.195,13.791-4.368,5.097-9.805,11.441-9.805,23.551s5.437,18.454 9.805,23.551c3.73,4.353 6.195,7.229 6.195,13.791 0,6.554-2.464,9.427-6.193,13.776-4.369,5.095-9.807,11.436-9.807,23.54z" fill="#333333"/>
    <path d="m224,119.5c0,4.142 3.358,7.5 7.5,7.5s7.5-3.358 7.5-7.5c0-6.554 2.464-9.427 6.193-13.776 4.369-5.095 9.807-11.436 9.807-23.541 0-12.109-5.437-18.454-9.805-23.551-3.73-4.353-6.195-7.229-6.195-13.791 0-4.142-3.358-7.5-7.5-7.5s-7.5,3.358-7.5,7.5c0,12.109 5.437,18.454 9.805,23.551 3.73,4.353 6.195,7.229 6.195,13.791 0,6.554-2.464,9.427-6.193,13.776-4.369,5.096-9.807,11.437-9.807,23.541z" fill="#333333"/>
    <path d="m144,119.5c0,4.142 3.358,7.5 7.5,7.5s7.5-3.358 7.5-7.5c0-6.554 2.464-9.427 6.193-13.776 4.369-5.095 9.807-11.436 9.807-23.541 0-12.109-5.437-18.454-9.805-23.551-3.73-4.353-6.195-7.229-6.195-13.791 0-4.142-3.358-7.5-7.5-7.5s-7.5,3.358-7.5,7.5c0,12.109 5.437,18.454 9.805,23.551 3.73,4.353 6.195,7.229 6.195,13.791 0,6.554-2.464,9.427-6.193,13.776-4.369,5.096-9.807,11.437-9.807,23.541z" fill="#333333"/>
    <path d="m311.5,176c-4.142,0-7.5,3.358-7.5,7.5v24c0,4.142 3.358,7.5 7.5,7.5s7.5-3.358 7.5-7.5v-24c0-4.142-3.358-7.5-7.5-7.5z" fill="#333333"/>
    <path d="m311.5,232c-4.142,0-7.5,3.358-7.5,7.5v120c0,4.142 3.358,7.5 7.5,7.5s7.5-3.358 7.5-7.5v-120c0-4.142-3.358-7.5-7.5-7.5z" fill="#333333"/>
  </g>
</svg>
