<?xml version="1.0" encoding="iso-8859-1"?>
<!-- Generator: Adobe Illustrator 16.0.0, SVG Export Plug-In . SVG Version: 6.00 Build 0)  -->
<!DOCTYPE svg PUBLIC "-//W3C//DTD SVG 1.1//EN" "http://www.w3.org/Graphics/SVG/1.1/DTD/svg11.dtd">
<svg xmlns="http://www.w3.org/2000/svg" xmlns:xlink="http://www.w3.org/1999/xlink" version="1.1" id="Capa_1" x="0px" y="0px" width="512px" height="512px" viewBox="0 0 218.977 218.977" style="enable-background:new 0 0 218.977 218.977;" xml:space="preserve">
<g>
	<path d="M217.977,27.177l-7.257-7.191c-0.647-0.642-1.521-0.991-2.442-0.977c-0.914,0.018-1.781,0.405-2.402,1.073l-87.885,95.836   l-6.405-0.021c0,0,91.577-94.3,92.101-94.848c0.672-0.707,1.006-1.671,0.913-2.643c-0.092-0.972-0.599-1.855-1.392-2.425   l-8.145-5.844c-1.375-0.986-3.268-0.802-4.427,0.431L89.381,115.904c0,0-47.882,0-86.081,0c-1.864,0-3.3,1.034-3.3,2.898   c0,20.69,0.584,36.275,8.136,48.426c6.314,10.157,16.877,17.812,37.88,27.126c-2.22,2.69-3.596,6.873-3.596,11.742   c0,1.864,1.511,3.375,3.375,3.375h82.311c1.864,0,3.375-1.511,3.375-3.375c0-4.393-1.119-8.225-2.968-10.908   c22.076-9.668,35.324-19.464,42.599-31.402c7.773-12.757,8.406-27.655,8.406-44.4c0-1.864-1.511-3.375-3.375-3.375   c-2.601,0-25.906-0.113-36.369-0.153c49.871-52.174,77.928-83.602,78.24-83.922C219.312,30.609,219.296,28.483,217.977,27.177z    M193.529,17.346l2.59,1.858c-11.412,11.966-93.99,96.704-93.99,96.704l-3.456-0.005L193.529,17.346z M165.347,160.274   c-7.034,11.545-20.794,21.07-44.61,30.886h-12.985c-1.864,0-3.375,1.512-3.375,3.375c0,1.864,1.511,3.375,3.375,3.375h13.954   c0.594,0,2.046,1.643,2.697,4.812H49.497c0.653-3.169,2.105-4.812,2.699-4.812h32.35c1.864,0,3.375-1.511,3.375-3.375   c0-1.863-1.511-3.375-3.375-3.375H55.685c-24.015-10.012-35.741-17.722-41.817-27.496c-5.746-9.242-6.998-20.962-7.11-41.486   c29.901,0.011,138.535,0.469,158.619,0.524c0.189,0.033,0.385,0.056,0.585,0.056c2.224,0.002,4.487,0.003,6.795,0.003   C172.66,137.513,171.74,149.784,165.347,160.274z M130.428,115.91l-3.197-0.007l81.213-88.672l2.403,2.382   C202.508,38.159,130.428,115.91,130.428,115.91z" fill="#333333"/>
</g>
<g>
</g>
<g>
</g>
<g>
</g>
<g>
</g>
<g>
</g>
<g>
</g>
<g>
</g>
<g>
</g>
<g>
</g>
<g>
</g>
<g>
</g>
<g>
</g>
<g>
</g>
<g>
</g>
<g>
</g>
</svg>
