<?xml version="1.0" encoding="iso-8859-1"?>
<!-- Generator: Adobe Illustrator 18.0.0, SVG Export Plug-In . SVG Version: 6.00 Build 0)  -->
<!DOCTYPE svg PUBLIC "-//W3C//DTD SVG 1.1//EN" "http://www.w3.org/Graphics/SVG/1.1/DTD/svg11.dtd">
<svg xmlns="http://www.w3.org/2000/svg" xmlns:xlink="http://www.w3.org/1999/xlink" version="1.1" id="Capa_1" x="0px" y="0px" viewBox="0 0 461.23 461.23" style="enable-background:new 0 0 461.23 461.23;" xml:space="preserve" width="512px" height="512px">
<g>
	<path d="M461.207,227.927c-0.091-3.583-2.093-6.845-5.247-8.547c-3.154-1.703-6.979-1.587-10.024,0.304   c-7.34,4.557-15.821,6.966-24.525,6.966c-25.646,0-46.521-20.809-46.62-46.426c0.013-0.242,0.021-0.481,0.021-0.714   c0-3.002-1.349-5.846-3.674-7.745c-2.326-1.9-5.383-2.652-8.323-2.054c-3.057,0.623-6.221,0.939-9.403,0.939   c-25.706,0-46.62-20.909-46.62-46.61c0-5.094,0.834-10.132,2.479-14.973c0.859-2.53,0.671-5.298-0.523-7.688   c-1.194-2.39-3.296-4.202-5.835-5.033c-19.213-6.288-32.121-24.093-32.121-44.306c0-11.412,4.17-22.398,11.742-30.935   c2.371-2.673,3.136-6.409,2.005-9.799c-1.131-3.391-3.984-5.919-7.486-6.634C261.866,1.572,246.245,0,230.62,0   C169.017,0,111.103,23.988,67.545,67.545C23.988,111.103,0,169.017,0,230.62c0,61.599,23.988,119.511,67.546,163.066   c43.558,43.556,101.472,67.544,163.074,67.544c61.599,0,119.51-23.988,163.066-67.544c43.557-43.557,67.544-101.468,67.544-163.066   C461.23,229.715,461.229,228.821,461.207,227.927z M230.62,441.23C114.483,441.23,20,346.751,20,230.62   c0-56.261,21.908-109.153,61.688-148.932C121.468,41.908,174.359,20,230.62,20c9.185,0,18.367,0.594,27.439,1.771   c-4.746,9.301-7.27,19.656-7.27,30.27c0,25.692,14.593,48.661,37.139,59.748c-0.757,4.033-1.139,8.128-1.139,12.252   c0,36.729,29.886,66.61,66.62,66.61c0.74,0,1.479-0.012,2.219-0.036c5.082,31.721,32.646,56.036,65.781,56.036   c6.625,0,13.162-0.979,19.414-2.88C434.014,353.8,342.335,441.23,230.62,441.23z" fill="#333333"/>
	<path d="M134.69,113.19c-17.645,0-32,14.355-32,32s14.355,32,32,32s32-14.355,32-32S152.335,113.19,134.69,113.19z M134.69,157.19   c-6.617,0-12-5.383-12-12s5.383-12,12-12s12,5.383,12,12S141.308,157.19,134.69,157.19z" fill="#333333"/>
	<path d="M284.809,201.765c-17.645,0-32,14.355-32,32s14.355,32,32,32s32-14.355,32-32S302.453,201.765,284.809,201.765z    M284.809,245.765c-6.617,0-12-5.383-12-12s5.383-12,12-12s12,5.383,12,12S291.426,245.765,284.809,245.765z" fill="#333333"/>
	<path d="M277.524,319.184c-18.748,0-34,15.252-34,34s15.252,34,34,34s34-15.252,34-34S296.272,319.184,277.524,319.184z    M277.524,367.184c-7.72,0-14-6.28-14-14s6.28-14,14-14s14,6.28,14,14S285.244,367.184,277.524,367.184z" fill="#333333"/>
	<path d="M114.265,281.103c-15.526,0-28.158,12.632-28.158,28.158s12.632,28.158,28.158,28.158s28.158-12.631,28.158-28.158   S129.791,281.103,114.265,281.103z M114.265,317.419c-4.498,0-8.158-3.66-8.158-8.158c0-4.499,3.66-8.158,8.158-8.158   s8.158,3.66,8.158,8.158C122.423,313.759,118.763,317.419,114.265,317.419z" fill="#333333"/>
</g>
<g>
</g>
<g>
</g>
<g>
</g>
<g>
</g>
<g>
</g>
<g>
</g>
<g>
</g>
<g>
</g>
<g>
</g>
<g>
</g>
<g>
</g>
<g>
</g>
<g>
</g>
<g>
</g>
<g>
</g>
</svg>
